<svg viewBox="0 0 800 450" xmlns="http://www.w3.org/2000/svg">
  <defs>
    <linearGradient id="bg3" x1="0" y1="0" x2="1" y2="1">
      <stop offset="0%" stop-color="#1a1a3a"/>
      <stop offset="50%" stop-color="#161034"/>
      <stop offset="100%" stop-color="#1a2a4a"/>
    </linearGradient>
  </defs>
  <rect width="800" height="450" fill="url(#bg3)"/>
  <!-- ID card + shield/check motif -->
  <g transform="translate(310,140)">
    <rect width="230" height="150" rx="14" fill="none" stroke="#4f9eff" stroke-width="2.5" opacity="0.9"/>
    <circle cx="45" cy="55" r="22" fill="none" stroke="#8b5cf6" stroke-width="2.5"/>
    <path d="M20,110 q25,-28 50,0" stroke="#8b5cf6" stroke-width="2.5" fill="none"/>
    <line x1="95" y1="40" x2="205" y2="40" stroke="#e9e6ff" stroke-width="3" opacity="0.6"/>
    <line x1="95" y1="60" x2="185" y2="60" stroke="#e9e6ff" stroke-width="3" opacity="0.4"/>
    <line x1="95" y1="80" x2="165" y2="80" stroke="#e9e6ff" stroke-width="3" opacity="0.4"/>
  </g>
  <g transform="translate(505,255)">
    <path d="M30,0 L58,12 V38 C58,64 30,78 30,78 C30,78 2,64 2,38 V12 Z"
          fill="#34a853" opacity="0.9"/>
    <path d="M17,38 L27,48 L45,26" stroke="#0d1f3c" stroke-width="4" fill="none" stroke-linecap="round" stroke-linejoin="round"/>
  </g>
  <text x="400" y="400" font-family="Segoe UI, Arial, sans-serif" font-size="28" font-weight="600"
        fill="#e9e6ff" text-anchor="middle" opacity="0.9">Employee Verification System</text>
  <text x="400" y="60" font-family="Segoe UI, Arial, sans-serif" font-size="15" letter-spacing="2"
        fill="#a78bfa" text-anchor="middle" opacity="0.7">PROJECT PREVIEW · PLACEHOLDER</text>
</svg>
